<svg version="1.2" xmlns="http://www.w3.org/2000/svg" viewBox="160 230 400 400" width="400" height="400">
	<style>
		.s0 { fill: #1a12ac;stroke: #ffffff;stroke-miterlimit:100 } 
	</style>
	<g id="Layer 1">
		<path class="s0" d="m335.2 298c1.3 3.01-1.39 0.13-1.39 0.13h171.14c0 0 52.55 2.46 52.25 57.78 0 2.01 0 3.43 0 3.43l0.36 80.03c0 0-2.11 28.68-35.07 46.66l44.88 78.31h-59.97l-39.62-69.76-22.45-0.86c0 0-30.15 19.68-60.32 70.62l-62.42 2.99c0 0 66.28-118.13 127.65-130.1l45.24-2.14c0 0 8.07 0.87 12.98-12.83l0.2-49.81c0 0 0.36-5.55-11.78-15.25l-112.57 0.43 0.48-0.25c0 0-30.21 0.44-117.79-1.8z"/>
		<g>
			<g>
			</g>
			<g>
				<g id="Folder 1">
					<path class="s0" d="m385.54 446.93c-19.52-13.28-53.03-40.04-53.03-61.44v-9.49h-72.81v9.49c0 21.4-8.72 41.7-23.81 55.39l-15.89 14.44 72.8 115.37v-79.68c-7.55-1.67-13.24-8.94-13.24-17.67 0-9.96 7.41-18.02 16.55-18.02 9.14 0 16.55 8.06 16.55 18.02 0 8.72-5.69 16-13.24 17.67v79.68c-3.1 3.09 29.45-74.28 85.73-123.04z"/>
				</g>
				<g id="Folder 2">
				</g>
				<g id="Folder 3">
				</g>
				<g id="Folder 4">
				</g>
			</g>
		</g>
	</g>
</svg>