<?xml version="1.0" encoding="UTF-8"?>
<svg id="Layer_1" data-name="Layer 1" xmlns="http://www.w3.org/2000/svg" viewBox="0 0 864 864">
  <defs>
    <style>
      .cls-1 {
        letter-spacing: -.01em;
      }

      .cls-2 {
        letter-spacing: 0em;
      }

      .cls-3 {
        font-family: IBMPlexSans-Bold, 'IBM Plex Sans';
        font-size: 81px;
        font-weight: 700;
      }

      .cls-3, .cls-4 {
        fill: #3a439b;
      }

      .cls-5 {
        letter-spacing: 0em;
      }

      .cls-6 {
        fill: none;
        stroke: #231f20;
        stroke-miterlimit: 10;
      }

      .cls-7 {
        letter-spacing: 0em;
      }
    </style>
  </defs>
  <path class="cls-4" d="M290.13,241.88v285.26h291.54V241.88h-291.54ZM491.32,480.96l-33.69-48.59-19.08-.6s-25.64,13.71-51.28,49.19l-53.07,2.09s56.35-82.29,108.53-90.63l38.46-1.49s6.85.59,11.03-8.95l.17-34.69s.31-3.86-10.01-10.63l-95.7.3-.6,70.06s-32.5,20.58-42.33,38.17v-149.67h145.49s44.68,1.71,44.42,40.25c-.01,1.4,0,2.39,0,2.39l.3,55.75s-1.79,19.97-29.82,32.49l38.16,54.56h-50.98Z"/>
  <path class="cls-4" d="M275.21,476.08h-60.84l-18.82,35.12s15.39,29.4-4.78,56c0,0-25.06,29.4-50.23-3.59,0,0-13.52-14.63-5.41-45.49,0,0,4.26-20.48,24.02-25.27l39.31-73.42s76.75-.27,76.75-.4c0-.13,0,23.28,0,23.28l-74.36-.13-34.63,63.98s-26.62,2.26-21.74,36.45c0,0,4.26,29.66,33.28,19.02,0,0,18.2-14.76,9.67-38.71,0,0-3.95-8.51-6.45-10.51l26.62-50.94,67.6-.27v14.9Z"/>
  <ellipse class="cls-4" cx="166.84" cy="535.81" rx="9.52" ry="12.17"/>
  <path class="cls-4" d="M594.87,477.41l60.84-.14,18.87,35.07s-15.35,29.43,4.86,55.99c0,0,25.11,29.34,50.23-3.71,0,0,13.5-14.66,5.34-45.5,0,0-4.29-20.47-24.06-25.22l-39.42-73.33s-76.75-.09-76.75-.22.03,23.28.03,23.28l74.36-.31,34.72,63.9s26.63,2.2,21.79,36.4c0,0-4.22,29.67-33.25,19.1,0,0-18.22-14.72-9.73-38.68,0,0,3.94-8.52,6.43-10.52l-26.7-50.88-67.6-.11.02,14.9Z"/>
  <ellipse class="cls-4" cx="703.32" cy="536.88" rx="9.52" ry="12.17"/>
  <path class="cls-4" d="M275.21,356.24v44.03h-76.75l-31.1-29.4-1.46.4s-13.73,31.79-44.51,16.76c0,0-32.86-19.95-13.31-63.71,0,0,21.22-40.3,54.91-3.46l111.7.13.52,15.56-117.84.27s-17.06-36.05-39.52-5.19c0,0-16.43,31.39,13.53,45.67,0,0,19.85,5.41,27.23-20.8l116.59-.27Z"/>
  <ellipse class="cls-4" cx="136.47" cy="349.19" rx="10.09" ry="12.9"/>
  <path class="cls-4" d="M711.88,357.2c7.6,26.1,27.41,20.42,27.41,20.42,29.85-14.69,13.15-45.85,13.15-45.85-22.72-30.55-39.48,5.73-39.48,5.73l-117.83,1.34.39-15.57,111.69-1.66c33.39-37.3,54.94,2.71,54.94,2.71,19.92,43.49-12.78,63.89-12.78,63.89-30.66,15.45-44.65-16.15-44.65-16.15l-1.46-.38-30.85,29.82-76.75,1.05-.37-44.03,116.58-1.32Z"/>
  <ellipse class="cls-4" cx="733.97" cy="349.58" rx="10.09" ry="12.9"/>
  <path class="cls-6" d="M542.3,480.96h-50.98l-33.69-48.59-19.08-.6s-25.64,13.71-51.28,49.19l-53.07,2.09s56.35-82.29,108.53-90.63l38.46-1.49s6.85.59,11.03-8.95l.17-34.69s.31-3.86-10.01-10.63l-95.7.3-.6,70.06s-32.5,20.58-42.33,38.17v-149.67h145.49s44.68,1.71,44.42,40.25c-.01,1.4,0,2.39,0,2.39l.3,55.75s-1.79,19.97-29.82,32.49l38.16,54.56Z"/>
  <text class="cls-3" transform="translate(219.99 622.23)"><tspan x="0" y="0">D</tspan><tspan class="cls-7" x="56.46" y="0">a</tspan><tspan class="cls-2" x="101.73" y="0">v</tspan><tspan class="cls-5" x="144.66" y="0">e</tspan><tspan class="cls-1" x="190.19" y="0">r</tspan><tspan x="221.78" y="0">alp</tspan><tspan class="cls-2" x="341.65" y="0">h</tspan><tspan x="389.28" y="0">y</tspan></text>
</svg>